<?xml version="1.0" standalone="no"?><!DOCTYPE svg PUBLIC "-//W3C//DTD SVG 1.1//EN" "http://www.w3.org/Graphics/SVG/1.1/DTD/svg11.dtd"><svg t="1622038617662" class="icon" viewBox="0 0 1024 1024" version="1.1" xmlns="http://www.w3.org/2000/svg" p-id="2392" xmlns:xlink="http://www.w3.org/1999/xlink" width="200" height="200"><defs><style type="text/css"></style></defs><path d="M661.333 661.397c-11.157 2.646-11.157 2.646-12.01 3.755l-0.768 0.597 0.576-0.533a21.227 21.227 0 0 1 12.202-3.84zM384 725.333h256v-42.602c0-7.254 3.627-13.654 9.13-17.494 2.817-2.688 5.42-5.269 8.769-8.661 5.546-5.632 11.946-12.203 23.765-24.448 18.965-19.627 23.893-24.747 29.568-30.4a282.944 282.944 0 0 0 83.157-200.768c0-37.29-7.274-74.24-21.546-108.693a21.333 21.333 0 1 1 39.445-16.32 327.04 327.04 0 0 1 24.768 125.013c0 86.037-33.579 168.875-95.659 230.955-5.397 5.397-10.346 10.496-28.906 29.717a3223.168 3223.168 0 0 1-29.824 30.507l-0.022 79.466c3.2 65.494-16.448 103.062-85.034 103.062H423.317c-66.688 0-89.664-42.88-81.984-103.36v-82.134c-14.208-10.432-33.834-29.29-61.824-57.258-127.552-127.574-127.552-334.358 0-461.91a325.59 325.59 0 0 1 230.955-95.658c42.859 0 85.355 8.384 125.013 24.789a21.333 21.333 0 0 1-16.32 39.424 284.373 284.373 0 0 0-108.693-21.547c-74.837 0-146.795 29.184-200.79 83.179-110.89 110.87-110.89 290.667 0 401.536 13.185 13.184 28.609 27.99 40.94 39.21 6.655 6.08 12.223 10.945 16.298 14.23 1.92 1.536 3.37 2.645 4.245 3.2-2.069-1.344-3.285-1.941-8.49-1.941A21.333 21.333 0 0 1 384 677.76v47.573zM384 768v4.693l-0.192 2.838C378.56 814.528 387.712 832 423.318 832H597.61c37.333 0 44.586-13.867 42.389-59.35V768H384z m0 128h256v42.667H384V896z" p-id="2393" fill="#ffffff"></path></svg>