<?xml version="1.0" standalone="no"?><!DOCTYPE svg PUBLIC "-//W3C//DTD SVG 1.1//EN" "http://www.w3.org/Graphics/SVG/1.1/DTD/svg11.dtd"><svg t="1622102877075" class="icon" viewBox="0 0 1024 1024" version="1.1" xmlns="http://www.w3.org/2000/svg" p-id="2065" xmlns:xlink="http://www.w3.org/1999/xlink" width="200" height="200"><defs><style type="text/css"></style></defs><path d="M279.168 134.784h45.696v597.248h-45.696z" fill="#55AEFF" p-id="2066"></path><path d="M861.312 0H162.688c-5.76 0-10.368 4.608-10.368 10.368v1003.136c0 5.76 4.608 10.368 10.368 10.368h698.624c5.76 0 10.368-4.608 10.368-10.368V10.368c0-5.632-4.608-10.368-10.368-10.368z m-61.44 220.16h51.072v250.368h-51.072V220.16z m0 271.104h51.072v250.368h-51.072V491.264z m51.072-291.84h-51.072V20.736h51.072v178.688zM173.056 20.736h606.08v982.528H173.056V20.736z m626.816 982.528V762.368h51.072v240.768h-51.072z" fill="#002C5B" p-id="2067"></path><path d="M356.224 71.296h-129.28c-5.76 0-10.368 4.608-10.368 10.368v679.424c0 5.76 4.608 10.368 10.368 10.368h129.152c5.76 0 10.368-4.608 10.368-10.368V81.664c0.128-5.76-4.608-10.368-10.24-10.368z m-10.368 679.424h-108.416V92.032h108.416v658.688z" fill="#002C5B" p-id="2068"></path><path d="M258.304 740.608h66.432c5.76 0 10.368-4.608 10.368-10.368V112.512c0-5.76-4.608-10.368-10.368-10.368h-66.432c-5.76 0-10.368 4.608-10.368 10.368v617.728c0 5.76 4.608 10.368 10.368 10.368zM268.672 122.88h45.696v596.992h-45.696V122.88z" fill="#002C5B" p-id="2069"></path></svg>