<?xml version="1.0" standalone="no"?><!DOCTYPE svg PUBLIC "-//W3C//DTD SVG 1.1//EN" "http://www.w3.org/Graphics/SVG/1.1/DTD/svg11.dtd"><svg t="1622102891179" class="icon" viewBox="0 0 1024 1024" version="1.1" xmlns="http://www.w3.org/2000/svg" p-id="2205" xmlns:xlink="http://www.w3.org/1999/xlink" width="200" height="200"><defs><style type="text/css"></style></defs><path d="M784 910.336H255.104c-0.768 0-1.536-0.64-1.536-1.536V140.288c0-0.768 0.64-1.536 1.536-1.536h528.896c0.768 0 1.536 0.64 1.536 1.536V908.8c0 0.896-0.64 1.536-1.536 1.536z" fill="#55AEFF" p-id="2206"></path><path d="M861.312 0H162.688c-5.76 0-10.368 4.608-10.368 10.368v1003.264c0 5.76 4.608 10.368 10.368 10.368h698.624c5.76 0 10.368-4.608 10.368-10.368V10.368c0-5.76-4.608-10.368-10.368-10.368z m-10.368 1003.264H173.056V20.736h677.888v982.528z" fill="#002C5B" p-id="2207"></path><path d="M230.144 918.272h563.712c4.352 0 7.936-3.584 7.936-7.936V113.664c0-4.352-3.584-7.936-7.936-7.936H230.144c-4.352 0-7.936 3.584-7.936 7.936v796.672c0 4.48 3.584 7.936 7.936 7.936zM785.92 121.6v780.8h-59.264V121.6H785.92z m-65.664 0v780.8h-64.128V121.6h64.128z m-70.528 0v780.8h-64.128V121.6h64.128z m-70.4 0v780.8h-64.128V121.6h64.128z m-70.528 0v780.8h-64.128V121.6h64.128z m-70.4 0v780.8h-64.128V121.6h64.128z m-70.528 0v780.8h-64.128V121.6h64.128z m-70.4 780.8H238.08V121.6h59.264v780.8z" fill="#002C5B" p-id="2208"></path></svg>